<svg width="100" height="112" viewBox="0 0 100 112" fill="none" xmlns="http://www.w3.org/2000/svg">
<path d="M0 24C0 17.3726 5.37258 12 12 12H88C94.6274 12 100 17.3726 100 24V102C100 107.523 95.5228 112 90 112H10C4.47716 112 0 107.523 0 102V24Z" fill="#200F3D"/>
<circle cx="80" cy="20.5" r="6.5" fill="#420061"/>
<rect x="75" width="10" height="25" rx="5" fill="#4A4A7A"/>
<circle cx="20" cy="20.5" r="6.5" fill="#420061"/>
<rect x="15" width="10" height="25" rx="5" fill="#4A4A7A"/>
<circle cx="50" cy="20.5" r="6.5" fill="#420061"/>
<rect x="45" width="10" height="25" rx="5" fill="#4A4A7A"/>
<rect y="37" width="100" height="65" fill="#4A4A7A"/>
<path d="M55 70C55 67.2386 57.2386 65 60 65V65C62.7614 65 65 67.2386 65 70V70C65 72.7614 62.7614 75 60 75V75C57.2386 75 55 72.7614 55 70V70Z" fill="#FF78F2"/>
<path d="M75 70C75 67.2386 77.2386 65 80 65V65C82.7614 65 85 67.2386 85 70V70C85 72.7614 82.7614 75 80 75V75C77.2386 75 75 72.7614 75 70V70Z" fill="#FFA621"/>
<path d="M35 53C35 50.2386 37.2386 48 40 48V48C42.7614 48 45 50.2386 45 53V53C45 55.7614 42.7614 58 40 58V58C37.2386 58 35 55.7614 35 53V53Z" fill="#FFA621"/>
<path d="M35 87C35 84.2386 37.2386 82 40 82V82C42.7614 82 45 84.2386 45 87V87C45 89.7614 42.7614 92 40 92V92C37.2386 92 35 89.7614 35 87V87Z" fill="#FFA621"/>
<path d="M15 70C15 67.2386 17.2386 65 20 65V65C22.7614 65 25 67.2386 25 70V70C25 72.7614 22.7614 75 20 75V75C17.2386 75 15 72.7614 15 70V70Z" fill="#FF78F2"/>
<path d="M35 70C35 67.2386 37.2386 65 40 65V65C42.7614 65 45 67.2386 45 70V70C45 72.7614 42.7614 75 40 75V75C37.2386 75 35 72.7614 35 70V70Z" fill="#FF78F2"/>
<path d="M75 52C75 49.2386 77.2386 47 80 47V47C82.7614 47 85 49.2386 85 52V52C85 54.7614 82.7614 57 80 57V57C77.2386 57 75 54.7614 75 52V52Z" fill="#59DD2B"/>
<path d="M15 87C15 84.2386 17.2386 82 20 82V82C22.7614 82 25 84.2386 25 87V87C25 89.7614 22.7614 92 20 92V92C17.2386 92 15 89.7614 15 87V87Z" fill="#59DD2B"/>
<path d="M55 52C55 49.2386 57.2386 47 60 47V47C62.7614 47 65 49.2386 65 52V52C65 54.7614 62.7614 57 60 57V57C57.2386 57 55 54.7614 55 52V52Z" fill="#59DD2B"/>
<rect x="60" y="47" width="20" height="10" fill="#59DD2B"/>
<rect x="20" y="65" width="40" height="10" fill="#FF78F2"/>
</svg>
