<svg width="276" height="28" viewBox="0 0 276 28" fill="none" xmlns="http://www.w3.org/2000/svg">
<path d="M7.908 14.58C8.904 14.58 9.78 14.448 10.536 14.184C11.304 13.92 11.946 13.554 12.462 13.086C12.99 12.606 13.386 12.036 13.65 11.376C13.914 10.716 14.046 9.99 14.046 9.198C14.046 7.554 13.536 6.27 12.516 5.346C11.508 4.422 9.972 3.96 7.908 3.96H3.768V14.58H7.908ZM7.908 1.206C9.54 1.206 10.956 1.398 12.156 1.782C13.368 2.154 14.37 2.688 15.162 3.384C15.954 4.08 16.542 4.92 16.926 5.904C17.322 6.888 17.52 7.986 17.52 9.198C17.52 10.398 17.31 11.496 16.89 12.492C16.47 13.488 15.852 14.346 15.036 15.066C14.232 15.786 13.23 16.35 12.03 16.758C10.842 17.154 9.468 17.352 7.908 17.352H3.768V27H0.294V1.206H7.908ZM36.5491 24.066V27H21.9151V1.206H25.3891V24.066H36.5491ZM54.1053 17.424L50.0553 6.93C49.9353 6.618 49.8093 6.258 49.6773 5.85C49.5453 5.43 49.4193 4.986 49.2993 4.518C49.0473 5.49 48.7893 6.3 48.5253 6.948L44.4753 17.424H54.1053ZM61.3773 27H58.6773C58.3653 27 58.1133 26.922 57.9213 26.766C57.7293 26.61 57.5853 26.412 57.4893 26.172L55.0773 19.944H43.5033L41.0913 26.172C41.0193 26.388 40.8813 26.58 40.6773 26.748C40.4733 26.916 40.2213 27 39.9213 27H37.2213L47.5353 1.206H51.0633L61.3773 27ZM85.6686 1.206V27H83.9226C83.6466 27 83.4126 26.952 83.2206 26.856C83.0406 26.76 82.8606 26.598 82.6806 26.37L67.7586 6.93C67.7826 7.23 67.8006 7.524 67.8126 7.812C67.8246 8.1 67.8306 8.37 67.8306 8.622V27H64.7706V1.206H66.5706C66.7266 1.206 66.8586 1.218 66.9666 1.242C67.0746 1.254 67.1706 1.284 67.2546 1.332C67.3386 1.368 67.4226 1.428 67.5066 1.512C67.5906 1.584 67.6806 1.68 67.7766 1.8L82.6986 21.222C82.6746 20.91 82.6506 20.61 82.6266 20.322C82.6146 20.022 82.6086 19.74 82.6086 19.476V1.206H85.6686ZM119.101 1.206V27H116.041V8.046C116.041 7.794 116.047 7.524 116.059 7.236C116.083 6.948 116.107 6.654 116.131 6.354L107.275 22.482C106.999 23.022 106.579 23.292 106.015 23.292H105.511C104.947 23.292 104.527 23.022 104.251 22.482L95.2148 6.282C95.2868 6.918 95.3228 7.506 95.3228 8.046V27H92.2628V1.206H94.8368C95.1488 1.206 95.3888 1.236 95.5568 1.296C95.7248 1.356 95.8868 1.524 96.0428 1.8L104.953 17.676C105.097 17.964 105.235 18.264 105.367 18.576C105.511 18.888 105.643 19.206 105.763 19.53C105.883 19.206 106.009 18.888 106.141 18.576C106.273 18.252 106.417 17.946 106.573 17.658L115.321 1.8C115.465 1.524 115.621 1.356 115.789 1.296C115.969 1.236 116.215 1.206 116.527 1.206H119.101ZM135.38 16.722V27H131.888V16.722L122.438 1.206H125.498C125.81 1.206 126.056 1.284 126.236 1.44C126.416 1.584 126.572 1.776 126.704 2.016L132.608 12.042C132.824 12.462 133.022 12.858 133.202 13.23C133.382 13.59 133.538 13.956 133.67 14.328C133.802 13.956 133.952 13.59 134.12 13.23C134.288 12.858 134.474 12.462 134.678 12.042L140.564 2.016C140.672 1.812 140.822 1.626 141.014 1.458C141.206 1.29 141.452 1.206 141.752 1.206H144.83L135.38 16.722ZM143.912 25.02C143.912 24.708 143.966 24.414 144.074 24.138C144.194 23.862 144.35 23.622 144.542 23.418C144.746 23.214 144.986 23.052 145.262 22.932C145.538 22.812 145.832 22.752 146.144 22.752C146.456 22.752 146.75 22.812 147.026 22.932C147.302 23.052 147.542 23.214 147.746 23.418C147.95 23.622 148.112 23.862 148.232 24.138C148.352 24.414 148.412 24.708 148.412 25.02C148.412 25.344 148.352 25.644 148.232 25.92C148.112 26.184 147.95 26.418 147.746 26.622C147.542 26.826 147.302 26.982 147.026 27.09C146.75 27.21 146.456 27.27 146.144 27.27C145.832 27.27 145.538 27.21 145.262 27.09C144.986 26.982 144.746 26.826 144.542 26.622C144.35 26.418 144.194 26.184 144.074 25.92C143.966 25.644 143.912 25.344 143.912 25.02ZM166.91 5.238C166.802 5.418 166.682 5.556 166.55 5.652C166.43 5.736 166.28 5.778 166.1 5.778C165.896 5.778 165.656 5.676 165.38 5.472C165.104 5.268 164.756 5.046 164.336 4.806C163.928 4.554 163.43 4.326 162.842 4.122C162.266 3.918 161.564 3.816 160.736 3.816C159.956 3.816 159.266 3.924 158.666 4.14C158.078 4.344 157.58 4.626 157.172 4.986C156.776 5.346 156.476 5.772 156.272 6.264C156.068 6.744 155.966 7.266 155.966 7.83C155.966 8.55 156.14 9.15 156.488 9.63C156.848 10.098 157.316 10.5 157.892 10.836C158.48 11.172 159.14 11.466 159.872 11.718C160.616 11.958 161.372 12.21 162.14 12.474C162.92 12.738 163.676 13.038 164.408 13.374C165.152 13.698 165.812 14.112 166.388 14.616C166.976 15.12 167.444 15.738 167.792 16.47C168.152 17.202 168.332 18.102 168.332 19.17C168.332 20.298 168.14 21.36 167.756 22.356C167.372 23.34 166.808 24.198 166.064 24.93C165.332 25.662 164.426 26.238 163.346 26.658C162.278 27.078 161.06 27.288 159.692 27.288C158.012 27.288 156.488 26.988 155.12 26.388C153.752 25.776 152.582 24.954 151.61 23.922L152.618 22.266C152.714 22.134 152.828 22.026 152.96 21.942C153.104 21.846 153.26 21.798 153.428 21.798C153.584 21.798 153.758 21.864 153.95 21.996C154.154 22.116 154.382 22.272 154.634 22.464C154.886 22.656 155.174 22.866 155.498 23.094C155.822 23.322 156.188 23.532 156.596 23.724C157.016 23.916 157.49 24.078 158.018 24.21C158.546 24.33 159.14 24.39 159.8 24.39C160.628 24.39 161.366 24.276 162.014 24.048C162.662 23.82 163.208 23.502 163.652 23.094C164.108 22.674 164.456 22.176 164.696 21.6C164.936 21.024 165.056 20.382 165.056 19.674C165.056 18.894 164.876 18.258 164.516 17.766C164.168 17.262 163.706 16.842 163.13 16.506C162.554 16.17 161.894 15.888 161.15 15.66C160.406 15.42 159.65 15.18 158.882 14.94C158.114 14.688 157.358 14.4 156.614 14.076C155.87 13.752 155.21 13.332 154.634 12.816C154.058 12.3 153.59 11.658 153.23 10.89C152.882 10.11 152.708 9.15 152.708 8.01C152.708 7.098 152.882 6.216 153.23 5.364C153.59 4.512 154.106 3.756 154.778 3.096C155.462 2.436 156.296 1.908 157.28 1.512C158.276 1.116 159.416 0.917998 160.7 0.917998C162.14 0.917998 163.448 1.146 164.624 1.602C165.812 2.058 166.856 2.718 167.756 3.582L166.91 5.238ZM197.095 14.112C197.095 16.044 196.789 17.82 196.177 19.44C195.565 21.048 194.701 22.434 193.585 23.598C192.469 24.762 191.125 25.668 189.553 26.316C187.993 26.952 186.265 27.27 184.369 27.27C182.473 27.27 180.745 26.952 179.185 26.316C177.625 25.668 176.287 24.762 175.171 23.598C174.055 22.434 173.191 21.048 172.579 19.44C171.967 17.82 171.661 16.044 171.661 14.112C171.661 12.18 171.967 10.41 172.579 8.802C173.191 7.182 174.055 5.79 175.171 4.626C176.287 3.45 177.625 2.538 179.185 1.89C180.745 1.242 182.473 0.917998 184.369 0.917998C186.265 0.917998 187.993 1.242 189.553 1.89C191.125 2.538 192.469 3.45 193.585 4.626C194.701 5.79 195.565 7.182 196.177 8.802C196.789 10.41 197.095 12.18 197.095 14.112ZM193.513 14.112C193.513 12.528 193.297 11.106 192.865 9.846C192.433 8.586 191.821 7.524 191.029 6.66C190.237 5.784 189.277 5.112 188.149 4.644C187.021 4.176 185.761 3.942 184.369 3.942C182.989 3.942 181.735 4.176 180.607 4.644C179.479 5.112 178.513 5.784 177.709 6.66C176.917 7.524 176.305 8.586 175.873 9.846C175.441 11.106 175.225 12.528 175.225 14.112C175.225 15.696 175.441 17.118 175.873 18.378C176.305 19.626 176.917 20.688 177.709 21.564C178.513 22.428 179.479 23.094 180.607 23.562C181.735 24.018 182.989 24.246 184.369 24.246C185.761 24.246 187.021 24.018 188.149 23.562C189.277 23.094 190.237 22.428 191.029 21.564C191.821 20.688 192.433 19.626 192.865 18.378C193.297 17.118 193.513 15.696 193.513 14.112ZM220.199 21.672C220.391 21.672 220.559 21.75 220.703 21.906L222.089 23.4C221.033 24.624 219.749 25.578 218.237 26.262C216.737 26.946 214.919 27.288 212.783 27.288C210.935 27.288 209.255 26.97 207.743 26.334C206.231 25.686 204.941 24.786 203.873 23.634C202.805 22.47 201.977 21.078 201.389 19.458C200.801 17.838 200.507 16.056 200.507 14.112C200.507 12.168 200.813 10.386 201.425 8.766C202.037 7.146 202.895 5.754 203.999 4.59C205.115 3.426 206.447 2.526 207.995 1.89C209.543 1.242 211.253 0.917998 213.125 0.917998C214.961 0.917998 216.581 1.212 217.985 1.8C219.389 2.388 220.625 3.186 221.693 4.194L220.541 5.796C220.469 5.916 220.373 6.018 220.253 6.102C220.145 6.174 219.995 6.21 219.803 6.21C219.587 6.21 219.323 6.096 219.011 5.868C218.699 5.628 218.291 5.364 217.787 5.076C217.283 4.788 216.653 4.53 215.897 4.302C215.141 4.062 214.211 3.942 213.107 3.942C211.775 3.942 210.557 4.176 209.453 4.644C208.349 5.1 207.395 5.766 206.591 6.642C205.799 7.518 205.181 8.586 204.737 9.846C204.293 11.106 204.071 12.528 204.071 14.112C204.071 15.72 204.299 17.154 204.755 18.414C205.223 19.674 205.853 20.742 206.645 21.618C207.449 22.482 208.391 23.142 209.471 23.598C210.563 24.054 211.739 24.282 212.999 24.282C213.767 24.282 214.457 24.24 215.069 24.156C215.693 24.06 216.263 23.916 216.779 23.724C217.307 23.532 217.793 23.292 218.237 23.004C218.693 22.704 219.143 22.35 219.587 21.942C219.791 21.762 219.995 21.672 220.199 21.672ZM229.63 27H226.138V1.206H229.63V27ZM249.926 17.424L245.876 6.93C245.756 6.618 245.63 6.258 245.498 5.85C245.366 5.43 245.24 4.986 245.12 4.518C244.868 5.49 244.61 6.3 244.346 6.948L240.296 17.424H249.926ZM257.198 27H254.498C254.186 27 253.934 26.922 253.742 26.766C253.55 26.61 253.406 26.412 253.31 26.172L250.898 19.944H239.324L236.912 26.172C236.84 26.388 236.702 26.58 236.498 26.748C236.294 26.916 236.042 27 235.742 27H233.042L243.356 1.206H246.884L257.198 27ZM275.225 24.066V27H260.591V1.206H264.065V24.066H275.225Z" fill="black"/>
</svg>
