<svg width="208" height="409" viewBox="0 0 208 409" fill="none" xmlns="http://www.w3.org/2000/svg">
<path d="M4 100C4 44.7715 48.7715 0 104 0H204V300C204 355.228 159.228 400 104 400H4V100Z" fill="#7050CC"/>
<g filter="url(#filter0_d)">
<path fill-rule="evenodd" clip-rule="evenodd" d="M104 0C48.7715 0 4 44.7715 4 100C4 155.228 48.7715 200 104 200C48.7715 200 4 244.772 4 300V400H104C159.228 400 204 355.228 204 300C204 244.772 159.228 200 104 200C159.228 200 204 155.228 204 100V0H104Z" fill="#B2E3FF"/>
</g>
<defs>
<filter id="filter0_d" x="0" y="0" width="208" height="409" filterUnits="userSpaceOnUse" color-interpolation-filters="sRGB">
<feFlood flood-opacity="0" result="BackgroundImageFix"/>
<feColorMatrix in="SourceAlpha" type="matrix" values="0 0 0 0 0 0 0 0 0 0 0 0 0 0 0 0 0 0 127 0"/>
<feOffset dy="5"/>
<feGaussianBlur stdDeviation="2"/>
<feColorMatrix type="matrix" values="0 0 0 0 0 0 0 0 0 0 0 0 0 0 0 0 0 0 0.25 0"/>
<feBlend mode="normal" in2="BackgroundImageFix" result="effect1_dropShadow"/>
<feBlend mode="normal" in="SourceGraphic" in2="effect1_dropShadow" result="shape"/>
</filter>
</defs>
</svg>
